<?xml version="1.0" encoding="UTF-8" standalone="no"?>
<svg
xmlns:svg="http://www.w3.org/2000/svg"
xmlns="http://www.w3.org/2000/svg"
viewBox="0 0 523.69916 135.49117"
version="1.1">
    <g
        id="title"
        transform="translate(-250.15042,-314.40502)">
        <path
            d="M 416.09656,-51.12 V 0 h 6.48 v -39.528 l 11.448,20.448 3.456,-5.904 -14.544,-26.136 z m 43.92,0 -18.576,33.192 -3.384,5.904 1.584,2.808 h 3.672 l 16.992,-30.312 V 0 h 6.48 v -51.12 z"
            stroke-width="0"
            stroke-linejoin="miter"
            stroke-miterlimit="2"
            fill="#e36137"
            stroke="#e36137"
            transform="matrix(2.5,0,0,2.5,-790.09098,446.622)"
            id="m" />
        <path
            d="m 485.43594,-51.048 h -6.48 v 26.784 l 6.48,-6.984 z m 12.816,22.464 20.52,-22.536 h -6.984 l -26.352,28.296 -6.48,6.912 V 0 h 6.48 v -15.624 l 8.856,-9.216 18.576,24.84 h 7.056 z"
            stroke-width="0"
            stroke-linejoin="miter"
            stroke-miterlimit="2"
            fill="#e36137"
            stroke="#e36137"
            transform="matrix(2.5,0,0,2.5,-782.59098,446.622)"
            id="k" />
        <path
            d="m 602.00956,-51.12 h -30.456 v 5.76 h 25.128 z m 6.84,0 -4.968,5.76 -32.976,40.32 V 0 h 2.808 l 5.328,-5.76 32.4,-40.32 v -5.04 z M 580.76956,0 h 30.672 v -5.76 h -25.632 z"
            stroke-width="0"
            stroke-linejoin="miter"
            stroke-miterlimit="2"
            fill="#e36137"
            stroke="#e36137"
            transform="matrix(2.5,0,0,2.5,-754.75432,446.622)"
            id="z" />
    </g>
    <g>
        <path
            style="fill:none;stroke:#55babd;stroke-width:16;stroke-miterlimit:4"
            d="M 289.11567,131.91921 344.46865,18.102175 401.26288,131.91921"
            id="triangle" />
    </g>
</svg>
