<svg width="403" height="82" viewBox="0 0 403 82" fill="none" xmlns="http://www.w3.org/2000/svg">
<path fill="#ff4338" d="M24.583 42.276C24.583 38.193 24.0443 35.3009 22.9668 33.5996C21.9461 31.8984 20.1597 31.0478 17.6079 31.0478C16.814 31.0478 15.9917 31.1045 15.1411 31.2179C14.2905 31.2746 13.4682 31.3597 12.6743 31.4731V66.0084H0V22.7968C1.07746 22.5132 2.32503 22.2297 3.74274 21.9462C5.21715 21.6059 6.74827 21.3224 8.3361 21.0955C9.98064 20.812 11.6535 20.6135 13.3548 20.5001C15.056 20.33 16.7289 20.2449 18.3734 20.2449C21.6058 20.2449 24.2144 20.6702 26.1992 21.5208C28.2407 22.3148 29.9136 23.2788 31.2178 24.413C33.0325 23.1087 35.1023 22.0879 37.4274 21.3507C39.8091 20.6135 41.9924 20.2449 43.9772 20.2449C47.5498 20.2449 50.4703 20.7553 52.7386 21.776C55.0636 22.7401 56.9066 24.1294 58.2676 25.9441C59.6286 27.7587 60.5643 29.9136 61.0747 32.4088C61.5851 34.904 61.8402 37.6827 61.8402 40.7449V66.0084H49.166V42.276C49.166 38.193 48.6272 35.3009 47.5498 33.5997C46.529 31.8984 44.7427 31.0478 42.1909 31.0478C41.5104 31.0478 40.5463 31.2179 39.2988 31.5582C38.1079 31.8984 37.1155 32.3237 36.3216 32.8341C36.7185 34.1384 36.9737 35.5277 37.0871 37.0021C37.2006 38.4198 37.2573 39.951 37.2573 41.5955V66.0084H24.583L24.583 42.276Z"/>
<path fill="#ff6b00" d="M85.9409 37.4274C87.1885 36.0664 88.4644 34.6487 89.7687 33.1743C91.1297 31.6999 92.434 30.2538 93.6815 28.8361C94.9291 27.3617 96.0916 25.9723 97.1691 24.668C98.3033 23.3638 99.2673 22.2296 100.061 21.2656H115.117C112.112 24.7248 109.163 28.0422 106.271 31.2178C103.435 34.3368 100.316 37.5692 96.9139 40.9149C98.6152 42.4461 100.373 44.2891 102.188 46.444C104.002 48.5422 105.76 50.7255 107.462 52.9938C109.163 55.2621 110.722 57.5304 112.14 59.7988C113.558 62.0671 114.749 64.1369 115.713 66.0083H101.167C100.26 64.5339 99.2106 62.9177 98.0197 61.1597C96.8855 59.3451 95.6663 57.5588 94.362 55.8008C93.0577 53.9862 91.6684 52.2566 90.194 50.612C88.7763 48.9675 87.3586 47.5781 85.9409 46.444V66.0083H73.2666V2.0415L85.9409 0V37.4274Z"/>
<path fill="#ffc843" d="M138.71 57.1619C139.958 57.1619 141.148 57.1335 142.283 57.0768C143.417 57.0201 144.324 56.935 145.005 56.8216V47.2096C144.494 47.0961 143.729 46.9827 142.708 46.8693C141.687 46.7559 140.751 46.6991 139.901 46.6991C138.71 46.6991 137.576 46.7842 136.498 46.9544C135.478 47.0678 134.57 47.323 133.776 47.7199C132.982 48.1169 132.359 48.6556 131.905 49.3361C131.451 50.0166 131.224 50.8672 131.224 51.888C131.224 53.8728 131.877 55.2621 133.181 56.056C134.542 56.7932 136.385 57.1618 138.71 57.1618L138.71 57.1619ZM137.689 20.0747C141.432 20.0747 144.551 20.5001 147.046 21.3507C149.541 22.2013 151.526 23.4205 153 25.0084C154.532 26.5962 155.609 28.5243 156.233 30.7926C156.857 33.0609 157.168 35.5844 157.168 38.3631V64.7324C155.354 65.1294 152.83 65.583 149.598 66.0934C146.366 66.6605 142.453 66.944 137.859 66.944C134.967 66.944 132.33 66.6888 129.949 66.1785C127.624 65.6681 125.61 64.8458 123.909 63.7117C122.208 62.5208 120.904 60.9897 119.996 59.1183C119.089 57.2469 118.635 54.9503 118.635 52.2283C118.635 49.6197 119.146 47.4081 120.166 45.5934C121.244 43.7788 122.662 42.3327 124.42 41.2552C126.177 40.1778 128.191 39.4122 130.459 38.9586C132.727 38.4482 135.081 38.193 137.519 38.193C139.164 38.193 140.61 38.2781 141.857 38.4482C143.162 38.5616 144.211 38.7318 145.005 38.9586V37.7677C145.005 35.6128 144.352 33.8832 143.048 32.5789C141.744 31.2746 139.476 30.6225 136.243 30.6225C134.088 30.6225 131.962 30.7926 129.863 31.1328C127.765 31.4163 125.951 31.8416 124.42 32.4087L122.803 22.2013C123.541 21.9744 124.448 21.7476 125.525 21.5208C126.659 21.2373 127.879 21.0105 129.183 20.8403C130.487 20.6135 131.848 20.4434 133.266 20.33C134.74 20.1598 136.215 20.0748 137.689 20.0748V20.0747Z"/>
<path fill="#05ce7c" d="M202.229 29.7719C201.208 30.906 199.819 32.4372 198.061 34.3652C196.359 36.2933 194.516 38.4199 192.532 40.7449C190.547 43.0699 188.534 45.5084 186.492 48.0603C184.507 50.6121 182.693 53.0789 181.048 55.4607H202.654V66.0084H165.652V58.5229C166.843 56.4814 168.261 54.2982 169.905 51.9731C171.606 49.5914 173.364 47.2096 175.179 44.8279C177.05 42.4462 178.893 40.1495 180.708 37.9379C182.523 35.6695 184.196 33.628 185.727 31.8134H166.673V21.2657H202.229V29.7719Z"/>
<path fill="#002f32" d="M225.573 59.2883C225.573 61.8402 224.751 63.7966 223.106 65.1576C221.519 66.4619 219.704 67.1141 217.662 67.1141C215.621 67.1141 213.778 66.4619 212.133 65.1576C210.546 63.7966 209.752 61.8402 209.752 59.2883C209.752 56.7365 210.546 54.8084 212.133 53.5041C213.778 52.1431 215.621 51.4626 217.662 51.4626C219.704 51.4626 221.519 52.1431 223.106 53.5041C224.751 54.8084 225.573 56.7365 225.573 59.2883Z"/>
<path fill="#00b3e3" d="M262.753 43.2967C262.753 35.1307 259.748 31.0477 253.737 31.0477C252.432 31.0477 251.128 31.2178 249.824 31.558C248.576 31.8983 247.556 32.3236 246.762 32.834V55.8859C247.385 55.9993 248.179 56.1127 249.143 56.2261C250.107 56.2829 251.157 56.3112 252.291 56.3112C255.75 56.3112 258.358 55.1203 260.116 52.7386C261.874 50.3569 262.753 47.2095 262.753 43.2967V43.2967ZM275.683 43.6369C275.683 47.2096 275.144 50.4419 274.067 53.334C273.046 56.2261 271.543 58.693 269.558 60.7344C267.574 62.7759 265.135 64.3638 262.243 65.4979C259.351 66.5754 256.062 67.1141 252.376 67.1141C250.845 67.1141 249.228 67.0291 247.527 66.8589C245.883 66.7455 244.238 66.5754 242.594 66.3486C241.006 66.1217 239.475 65.8665 238 65.583C236.526 65.2428 235.222 64.9025 234.087 64.5622V2.0415L246.762 0V22.2863C248.179 21.6625 249.654 21.1805 251.185 20.8403C252.716 20.5 254.361 20.3299 256.118 20.3299C259.294 20.3299 262.101 20.897 264.54 22.0312C266.978 23.1086 269.02 24.6681 270.664 26.7096C272.309 28.7511 273.556 31.2179 274.407 34.11C275.257 36.9454 275.683 40.121 275.683 43.637V43.6369Z"/>
<path fill="#00299f" d="M303.287 66.8589C299.601 66.8022 296.595 66.4053 294.27 65.6681C292.002 64.9308 290.187 63.9101 288.826 62.6058C287.522 61.2448 286.615 59.6286 286.104 57.7573C285.651 55.8292 285.424 53.6743 285.424 51.2925V2.0415L298.098 0V48.7407C298.098 49.8748 298.183 50.8956 298.353 51.8029C298.523 52.7102 298.835 53.4758 299.289 54.0996C299.799 54.7234 300.508 55.2337 301.415 55.6307C302.323 56.0276 303.542 56.2828 305.073 56.3963L303.287 66.8589Z"/>
<path fill="#da3ab3" d="M354.188 43.5519C354.188 47.0678 353.678 50.3002 352.657 53.249C351.637 56.1411 350.162 58.6363 348.234 60.7345C346.306 62.776 343.981 64.3638 341.259 65.498C338.594 66.6321 335.588 67.1992 332.242 67.1992C328.953 67.1992 325.948 66.6321 323.226 65.498C320.561 64.3638 318.264 62.776 316.336 60.7345C314.408 58.6363 312.905 56.1411 311.827 53.249C310.75 50.3002 310.211 47.0678 310.211 43.5519C310.211 40.036 310.75 36.832 311.827 33.9399C312.962 31.0478 314.493 28.581 316.421 26.5395C318.406 24.498 320.731 22.9102 323.396 21.776C326.118 20.6418 329.067 20.0747 332.242 20.0747C335.475 20.0747 338.424 20.6418 341.089 21.776C343.811 22.9102 346.136 24.498 348.064 26.5395C349.992 28.581 351.495 31.0478 352.572 33.9399C353.65 36.832 354.188 40.036 354.188 43.5519ZM341.259 43.5519C341.259 39.6391 340.465 36.5768 338.877 34.3652C337.346 32.0969 335.135 30.9627 332.242 30.9627C329.35 30.9627 327.11 32.0969 325.523 34.3652C323.935 36.5768 323.141 39.6391 323.141 43.5519C323.141 47.4648 323.935 50.5837 325.523 52.9088C327.11 55.1771 329.35 56.3113 332.242 56.3113C335.135 56.3113 337.346 55.1771 338.877 52.9088C340.465 50.5837 341.259 47.4648 341.259 43.5519Z"/>
<path fill="#7e0961" d="M374.809 42.1908C374.809 49.2793 377.673 52.8235 383.401 52.8235C384.705 52.8235 385.924 52.6534 387.058 52.3132C388.193 51.973 389.157 51.576 389.95 51.1223V30.8775C389.327 30.7641 388.589 30.679 387.739 30.6223C386.888 30.5089 385.896 30.4521 384.762 30.4521C381.416 30.4521 378.921 31.558 377.276 33.7696C375.632 35.9812 374.809 38.7883 374.809 42.1907V42.1908ZM402.625 60.3941C402.625 67.7094 400.753 73.125 397.011 76.641C393.325 80.2136 387.597 81.9999 379.828 81.9999C377.106 81.9999 374.384 81.7447 371.662 81.2343C368.94 80.7807 366.417 80.1569 364.092 79.363L366.303 68.7302C368.288 69.5241 370.358 70.1479 372.513 70.6015C374.724 71.0552 377.219 71.282 379.998 71.282C383.628 71.282 386.179 70.4881 387.654 68.9003C389.185 67.3125 389.95 65.271 389.95 62.7758V61.1596C388.589 61.7834 387.172 62.2654 385.697 62.6057C384.28 62.8892 382.72 63.031 381.019 63.031C374.838 63.031 370.103 61.2163 366.814 57.587C363.524 53.901 361.88 48.7689 361.88 42.1907C361.88 38.9016 362.39 35.9245 363.411 33.2592C364.432 30.5372 365.906 28.2122 367.834 26.2841C369.819 24.356 372.229 22.8816 375.065 21.8608C377.9 20.7834 381.104 20.2447 384.677 20.2447C386.208 20.2447 387.767 20.3297 389.355 20.4999C391 20.6133 392.616 20.7834 394.204 21.0102C395.791 21.2371 397.294 21.5206 398.712 21.8608C400.186 22.1444 401.491 22.4563 402.625 22.7965V60.3941Z"/>
</svg>
